<?xml version="1.0" encoding="UTF-8" standalone="no"?><svg xmlns="http://www.w3.org/2000/svg" xmlns:xlink="http://www.w3.org/1999/xlink" contentScriptType="application/ecmascript" contentStyleType="text/css" height="790px" preserveAspectRatio="none" style="width:619px;height:790px;" version="1.1" viewBox="0 0 619 790" width="619px" zoomAndPan="magnify"><defs><filter height="300%" id="ft00xgun2tkq6" width="300%" x="-1" y="-1"><feGaussianBlur result="blurOut" stdDeviation="2.0"/><feColorMatrix in="blurOut" result="blurOut2" type="matrix" values="0 0 0 0 0 0 0 0 0 0 0 0 0 0 0 0 0 0 .4 0"/><feOffset dx="4.0" dy="4.0" in="blurOut2" result="blurOut3"/><feBlend in="SourceGraphic" in2="blurOut3" mode="normal"/></filter></defs><g><ellipse cx="318" cy="20" fill="#000000" filter="url(#ft00xgun2tkq6)" rx="10" ry="10" style="stroke: none; stroke-width: 1.0;"/><rect fill="#FEFECE" filter="url(#ft00xgun2tkq6)" height="33.9688" rx="12.5" ry="12.5" style="stroke: #A80036; stroke-width: 1.5;" width="81" x="277.5" y="50"/><text fill="#000000" font-family="sans-serif" font-size="12" lengthAdjust="spacingAndGlyphs" textLength="61" x="287.5" y="71.1387">Enter URL</text><polygon fill="#FEFECE" filter="url(#ft00xgun2tkq6)" points="32,103.9688,210,103.9688,222,115.9688,210,127.9688,32,127.9688,20,115.9688,32,103.9688" style="stroke: #A80036; stroke-width: 1.5;"/><text fill="#000000" font-family="sans-serif" font-size="11" lengthAdjust="spacingAndGlyphs" textLength="21" x="125" y="138.1792">Yes</text><text fill="#000000" font-family="sans-serif" font-size="11" lengthAdjust="spacingAndGlyphs" textLength="178" x="32" y="119.7769">Is there an IP on the HSTS list?</text><polygon fill="#FEFECE" filter="url(#ft00xgun2tkq6)" points="258,103.9688,550,103.9688,562,115.9688,550,127.9688,258,127.9688,246,115.9688,258,103.9688" style="stroke: #A80036; stroke-width: 1.5;"/><text fill="#000000" font-family="sans-serif" font-size="11" lengthAdjust="spacingAndGlyphs" textLength="15" x="408" y="138.1792">No</text><text fill="#000000" font-family="sans-serif" font-size="11" lengthAdjust="spacingAndGlyphs" textLength="292" x="258" y="119.7769">Is there an IP in the hosts file or in the DNS cache?</text><text fill="#000000" font-family="sans-serif" font-size="11" lengthAdjust="spacingAndGlyphs" textLength="17" x="562" y="113.3745">Да</text><rect fill="#FEFECE" filter="url(#ft00xgun2tkq6)" height="33.9688" rx="12.5" ry="12.5" style="stroke: #A80036; stroke-width: 1.5;" width="130" x="339" y="159.6792"/><text fill="#000000" font-family="sans-serif" font-size="12" lengthAdjust="spacingAndGlyphs" textLength="110" x="349" y="180.8179">Sent ARP request</text><rect fill="#FEFECE" filter="url(#ft00xgun2tkq6)" height="33.9688" rx="12.5" ry="12.5" style="stroke: #A80036; stroke-width: 1.5;" width="324" x="242" y="213.6479"/><text fill="#000000" font-family="sans-serif" font-size="12" lengthAdjust="spacingAndGlyphs" textLength="304" x="252" y="234.7866">Processing ARP request and extracting IP from it</text><rect fill="#FEFECE" filter="url(#ft00xgun2tkq6)" height="33.9688" rx="12.5" ry="12.5" style="stroke: #A80036; stroke-width: 1.5;" width="99" x="268.5" y="287.6167"/><text fill="#000000" font-family="sans-serif" font-size="12" lengthAdjust="spacingAndGlyphs" textLength="79" x="278.5" y="308.7554">Open socket</text><rect fill="#FEFECE" filter="url(#ft00xgun2tkq6)" height="33.9688" rx="12.5" ry="12.5" style="stroke: #A80036; stroke-width: 1.5;" width="118" x="259" y="341.5854"/><text fill="#000000" font-family="sans-serif" font-size="12" lengthAdjust="spacingAndGlyphs" textLength="98" x="269" y="362.7241">TCP Handshake</text><rect fill="#FEFECE" filter="url(#ft00xgun2tkq6)" height="33.9688" rx="12.5" ry="12.5" style="stroke: #A80036; stroke-width: 1.5;" width="167" x="234.5" y="395.5542"/><text fill="#000000" font-family="sans-serif" font-size="12" lengthAdjust="spacingAndGlyphs" textLength="147" x="244.5" y="416.6929">Request to HTTP server</text><rect fill="#FEFECE" filter="url(#ft00xgun2tkq6)" height="33.9688" rx="12.5" ry="12.5" style="stroke: #A80036; stroke-width: 1.5;" width="175" x="230.5" y="449.5229"/><text fill="#000000" font-family="sans-serif" font-size="12" lengthAdjust="spacingAndGlyphs" textLength="155" x="240.5" y="470.6616">Answer from HTTP server</text><rect fill="#FEFECE" filter="url(#ft00xgun2tkq6)" height="33.9688" rx="12.5" ry="12.5" style="stroke: #A80036; stroke-width: 1.5;" width="208" x="214" y="551.894"/><text fill="#000000" font-family="sans-serif" font-size="12" lengthAdjust="spacingAndGlyphs" textLength="188" x="224" y="573.0327">Terminating a TCP Connection</text><polygon fill="#FEFECE" filter="url(#ft00xgun2tkq6)" points="268.5,503.4917,367.5,503.4917,379.5,515.4917,367.5,527.4917,268.5,527.4917,256.5,515.4917,268.5,503.4917" style="stroke: #A80036; stroke-width: 1.5;"/><text fill="#000000" font-family="sans-serif" font-size="11" lengthAdjust="spacingAndGlyphs" textLength="15" x="322" y="537.7021">No</text><text fill="#000000" font-family="sans-serif" font-size="11" lengthAdjust="spacingAndGlyphs" textLength="99" x="268.5" y="519.2998">Enable keep-alive</text><text fill="#000000" font-family="sans-serif" font-size="11" lengthAdjust="spacingAndGlyphs" textLength="21" x="379.5" y="512.8975">Yes</text><polygon fill="#FEFECE" filter="url(#ft00xgun2tkq6)" points="318,605.8628,330,617.8628,318,629.8628,306,617.8628,318,605.8628" style="stroke: #A80036; stroke-width: 1.5;"/><rect fill="#FEFECE" filter="url(#ft00xgun2tkq6)" height="33.9688" rx="12.5" ry="12.5" style="stroke: #A80036; stroke-width: 1.5;" width="139" x="248.5" y="649.8628"/><text fill="#000000" font-family="sans-serif" font-size="12" lengthAdjust="spacingAndGlyphs" textLength="119" x="258.5" y="671.0015">Parsing HTML page</text><rect fill="#FEFECE" filter="url(#ft00xgun2tkq6)" height="33.9688" rx="12.5" ry="12.5" style="stroke: #A80036; stroke-width: 1.5;" width="117" x="259.5" y="703.8315"/><text fill="#000000" font-family="sans-serif" font-size="12" lengthAdjust="spacingAndGlyphs" textLength="97" x="269.5" y="724.9702">Page rendering</text><ellipse cx="318" cy="768.8003" fill="#FFFFFF" filter="url(#ft00xgun2tkq6)" rx="11" ry="11" style="stroke: #000000; stroke-width: 1.0;"/><ellipse cx="318" cy="768.8003" fill="#000000" rx="6" ry="6" style="stroke: #7F7F7F; stroke-width: 1.0;"/><line style="stroke: #A80036; stroke-width: 1.5;" x1="318" x2="318" y1="30" y2="50"/><polygon fill="#A80036" points="314,40,318,50,322,40,318,44" style="stroke: #A80036; stroke-width: 1.0;"/><line style="stroke: #A80036; stroke-width: 1.5;" x1="404" x2="404" y1="193.6479" y2="213.6479"/><polygon fill="#A80036" points="400,203.6479,404,213.6479,408,203.6479,404,207.6479" style="stroke: #A80036; stroke-width: 1.0;"/><line style="stroke: #A80036; stroke-width: 1.5;" x1="121" x2="121" y1="127.9688" y2="267.6167"/><polygon fill="#A80036" points="117,257.6167,121,267.6167,125,257.6167,121,261.6167" style="stroke: #A80036; stroke-width: 1.0;"/><line style="stroke: #A80036; stroke-width: 1.5;" x1="404" x2="404" y1="127.9688" y2="159.6792"/><polygon fill="#A80036" points="400,149.6792,404,159.6792,408,149.6792,404,153.6792" style="stroke: #A80036; stroke-width: 1.0;"/><line style="stroke: #A80036; stroke-width: 1.5;" x1="404" x2="404" y1="247.6167" y2="267.6167"/><polygon fill="#A80036" points="400,257.6167,404,267.6167,408,257.6167,404,261.6167" style="stroke: #A80036; stroke-width: 1.0;"/><line style="stroke: #A80036; stroke-width: 1.5;" x1="222" x2="246" y1="115.9688" y2="115.9688"/><polygon fill="#A80036" points="236,111.9688,246,115.9688,236,119.9688,240,115.9688" style="stroke: #A80036; stroke-width: 1.0;"/><line style="stroke: #A80036; stroke-width: 1.5;" x1="318" x2="318" y1="83.9688" y2="88.9688"/><line style="stroke: #A80036; stroke-width: 1.5;" x1="318" x2="121" y1="88.9688" y2="88.9688"/><line style="stroke: #A80036; stroke-width: 1.5;" x1="121" x2="121" y1="88.9688" y2="103.9688"/><polygon fill="#A80036" points="117,93.9688,121,103.9688,125,93.9688,121,97.9688" style="stroke: #A80036; stroke-width: 1.0;"/><line style="stroke: #A80036; stroke-width: 1.5;" x1="562" x2="593" y1="115.9688" y2="115.9688"/><line style="stroke: #A80036; stroke-width: 1.5;" x1="593" x2="593" y1="115.9688" y2="267.6167"/><polygon fill="#A80036" points="589,257.6167,593,267.6167,597,257.6167,593,261.6167" style="stroke: #A80036; stroke-width: 1.0;"/><line style="stroke: #A80036; stroke-width: 1.5;" x1="121" x2="593" y1="267.6167" y2="267.6167"/><line style="stroke: #A80036; stroke-width: 1.5;" x1="318" x2="318" y1="267.6167" y2="287.6167"/><polygon fill="#A80036" points="314,277.6167,318,287.6167,322,277.6167,318,281.6167" style="stroke: #A80036; stroke-width: 1.0;"/><line style="stroke: #A80036; stroke-width: 1.5;" x1="318" x2="318" y1="321.5854" y2="341.5854"/><polygon fill="#A80036" points="314,331.5854,318,341.5854,322,331.5854,318,335.5854" style="stroke: #A80036; stroke-width: 1.0;"/><line style="stroke: #A80036; stroke-width: 1.5;" x1="318" x2="318" y1="375.5542" y2="395.5542"/><polygon fill="#A80036" points="314,385.5542,318,395.5542,322,385.5542,318,389.5542" style="stroke: #A80036; stroke-width: 1.0;"/><line style="stroke: #A80036; stroke-width: 1.5;" x1="318" x2="318" y1="429.5229" y2="449.5229"/><polygon fill="#A80036" points="314,439.5229,318,449.5229,322,439.5229,318,443.5229" style="stroke: #A80036; stroke-width: 1.0;"/><line style="stroke: #A80036; stroke-width: 1.5;" x1="318" x2="318" y1="527.4917" y2="551.894"/><polygon fill="#A80036" points="314,541.894,318,551.894,322,541.894,318,545.894" style="stroke: #A80036; stroke-width: 1.0;"/><line style="stroke: #A80036; stroke-width: 1.5;" x1="379.5" x2="432" y1="515.4917" y2="515.4917"/><polygon fill="#A80036" points="428,558.8784,432,568.8784,436,558.8784,432,562.8784" style="stroke: #A80036; stroke-width: 1.5;"/><line style="stroke: #A80036; stroke-width: 1.5;" x1="432" x2="432" y1="515.4917" y2="617.8628"/><line style="stroke: #A80036; stroke-width: 1.5;" x1="432" x2="330" y1="617.8628" y2="617.8628"/><polygon fill="#A80036" points="340,613.8628,330,617.8628,340,621.8628,336,617.8628" style="stroke: #A80036; stroke-width: 1.0;"/><line style="stroke: #A80036; stroke-width: 1.5;" x1="318" x2="318" y1="585.8628" y2="605.8628"/><polygon fill="#A80036" points="314,595.8628,318,605.8628,322,595.8628,318,599.8628" style="stroke: #A80036; stroke-width: 1.0;"/><line style="stroke: #A80036; stroke-width: 1.5;" x1="318" x2="318" y1="483.4917" y2="503.4917"/><polygon fill="#A80036" points="314,493.4917,318,503.4917,322,493.4917,318,497.4917" style="stroke: #A80036; stroke-width: 1.0;"/><line style="stroke: #A80036; stroke-width: 1.5;" x1="318" x2="318" y1="629.8628" y2="649.8628"/><polygon fill="#A80036" points="314,639.8628,318,649.8628,322,639.8628,318,643.8628" style="stroke: #A80036; stroke-width: 1.0;"/><line style="stroke: #A80036; stroke-width: 1.5;" x1="318" x2="318" y1="683.8315" y2="703.8315"/><polygon fill="#A80036" points="314,693.8315,318,703.8315,322,693.8315,318,697.8315" style="stroke: #A80036; stroke-width: 1.0;"/><line style="stroke: #A80036; stroke-width: 1.5;" x1="318" x2="318" y1="737.8003" y2="757.8003"/><polygon fill="#A80036" points="314,747.8003,318,757.8003,322,747.8003,318,751.8003" style="stroke: #A80036; stroke-width: 1.0;"/><!--MD5=[af5407098ec1cb679a1fbddc4f29bef1]
@startuml
start

:Enter URL;
if (Is there an IP on the HSTS list?) then (Yes)
 elseif (Is there an IP in the hosts file or in the DNS cache?) then (No)
:Sent ARP request;
:Processing ARP request and extracting IP from it;
else(Да)
endif
:Open socket;
:TCP Handshake;
:Request to HTTP server;
:Answer from HTTP server;
if (Enable keep-alive) then (No)
:Terminating a TCP Connection;
else (Yes)
endif
:Parsing HTML page;
:Page rendering;
stop
@enduml

PlantUML version 1.2019.11(Sun Sep 22 10:02:15 UTC 2019)
(GPL source distribution)
Java Runtime: OpenJDK Runtime Environment
JVM: OpenJDK 64-Bit Server VM
Java Version: 1.8.0_222-heroku-b10
Operating System: Linux
Default Encoding: UTF-8
Language: en
Country: US
--></g></svg>