<?xml version="1.0" encoding="UTF-8" standalone="no"?><svg xmlns="http://www.w3.org/2000/svg" xmlns:xlink="http://www.w3.org/1999/xlink" contentScriptType="application/ecmascript" contentStyleType="text/css" height="846px" preserveAspectRatio="none" style="width:749px;height:846px;" version="1.1" viewBox="0 0 749 846" width="749px" zoomAndPan="magnify"><defs><filter height="300%" id="firv5rijk0pey" width="300%" x="-1" y="-1"><feGaussianBlur result="blurOut" stdDeviation="2.0"/><feColorMatrix in="blurOut" result="blurOut2" type="matrix" values="0 0 0 0 0 0 0 0 0 0 0 0 0 0 0 0 0 0 .4 0"/><feOffset dx="4.0" dy="4.0" in="blurOut2" result="blurOut3"/><feBlend in="SourceGraphic" in2="blurOut3" mode="normal"/></filter></defs><g><rect fill="#FFFFFF" filter="url(#firv5rijk0pey)" height="147.6641" style="stroke: #A80036; stroke-width: 1.0;" width="10" x="154" y="640.4297"/><rect fill="#FFFFFF" filter="url(#firv5rijk0pey)" height="29.1328" style="stroke: #A80036; stroke-width: 1.0;" width="10" x="684.5" y="553.0313"/><rect fill="#FFFFFF" filter="url(#firv5rijk0pey)" height="236.5391" style="stroke: #000000; stroke-width: 2.0;" width="593.5" x="111.5" y="84.4297"/><rect fill="#FFFFFF" filter="url(#firv5rijk0pey)" height="132.3359" style="stroke: #000000; stroke-width: 2.0;" width="358" x="337" y="137.6953"/><rect fill="#FFFFFF" height="56.9375" style="stroke: none; stroke-width: 1.0;" width="358" x="337" y="213.0938"/><rect fill="#FFFFFF" height="43.9375" style="stroke: none; stroke-width: 1.0;" width="593.5" x="111.5" y="277.0313"/><rect fill="#FFFFFF" filter="url(#firv5rijk0pey)" height="104.5313" style="stroke: #000000; stroke-width: 2.0;" width="297" x="337" y="655.4297"/><line style="stroke: #A80036; stroke-width: 1.0; stroke-dasharray: 5.0,5.0;" x1="33" x2="33" y1="38.2969" y2="806.0938"/><line style="stroke: #A80036; stroke-width: 1.0; stroke-dasharray: 5.0,5.0;" x1="158.5" x2="158.5" y1="38.2969" y2="806.0938"/><line style="stroke: #A80036; stroke-width: 1.0; stroke-dasharray: 5.0,5.0;" x1="366" x2="366" y1="38.2969" y2="806.0938"/><line style="stroke: #A80036; stroke-width: 1.0; stroke-dasharray: 5.0,5.0;" x1="476" x2="476" y1="38.2969" y2="806.0938"/><line style="stroke: #A80036; stroke-width: 1.0; stroke-dasharray: 5.0,5.0;" x1="579" x2="579" y1="38.2969" y2="806.0938"/><line style="stroke: #A80036; stroke-width: 1.0; stroke-dasharray: 5.0,5.0;" x1="689.5" x2="689.5" y1="38.2969" y2="806.0938"/><rect fill="#FEFECE" filter="url(#firv5rijk0pey)" height="30.2969" style="stroke: #A80036; stroke-width: 1.5;" width="46" x="8" y="3"/><text fill="#000000" font-family="sans-serif" font-size="14" lengthAdjust="spacingAndGlyphs" textLength="32" x="15" y="22.9951">User</text><rect fill="#FEFECE" filter="url(#firv5rijk0pey)" height="30.2969" style="stroke: #A80036; stroke-width: 1.5;" width="46" x="8" y="805.0938"/><text fill="#000000" font-family="sans-serif" font-size="14" lengthAdjust="spacingAndGlyphs" textLength="32" x="15" y="825.0889">User</text><rect fill="#FEFECE" filter="url(#firv5rijk0pey)" height="30.2969" style="stroke: #A80036; stroke-width: 1.5;" width="71" x="121.5" y="3"/><text fill="#000000" font-family="sans-serif" font-size="14" lengthAdjust="spacingAndGlyphs" textLength="57" x="128.5" y="22.9951">Browser</text><rect fill="#FEFECE" filter="url(#firv5rijk0pey)" height="30.2969" style="stroke: #A80036; stroke-width: 1.5;" width="71" x="121.5" y="805.0938"/><text fill="#000000" font-family="sans-serif" font-size="14" lengthAdjust="spacingAndGlyphs" textLength="57" x="128.5" y="825.0889">Browser</text><rect fill="#FEFECE" filter="url(#firv5rijk0pey)" height="30.2969" style="stroke: #A80036; stroke-width: 1.5;" width="34" x="347" y="3"/><text fill="#000000" font-family="sans-serif" font-size="14" lengthAdjust="spacingAndGlyphs" textLength="20" x="354" y="22.9951">OS</text><rect fill="#FEFECE" filter="url(#firv5rijk0pey)" height="30.2969" style="stroke: #A80036; stroke-width: 1.5;" width="34" x="347" y="805.0938"/><text fill="#000000" font-family="sans-serif" font-size="14" lengthAdjust="spacingAndGlyphs" textLength="20" x="354" y="825.0889">OS</text><rect fill="#FEFECE" filter="url(#firv5rijk0pey)" height="30.2969" style="stroke: #A80036; stroke-width: 1.5;" width="94" x="427" y="3"/><text fill="#000000" font-family="sans-serif" font-size="14" lengthAdjust="spacingAndGlyphs" textLength="80" x="434" y="22.9951">DNS_server</text><rect fill="#FEFECE" filter="url(#firv5rijk0pey)" height="30.2969" style="stroke: #A80036; stroke-width: 1.5;" width="94" x="427" y="805.0938"/><text fill="#000000" font-family="sans-serif" font-size="14" lengthAdjust="spacingAndGlyphs" textLength="80" x="434" y="825.0889">DNS_server</text><rect fill="#FEFECE" filter="url(#firv5rijk0pey)" height="30.2969" style="stroke: #A80036; stroke-width: 1.5;" width="85" x="535" y="3"/><text fill="#000000" font-family="sans-serif" font-size="14" lengthAdjust="spacingAndGlyphs" textLength="71" x="542" y="22.9951">Server_OS</text><rect fill="#FEFECE" filter="url(#firv5rijk0pey)" height="30.2969" style="stroke: #A80036; stroke-width: 1.5;" width="85" x="535" y="805.0938"/><text fill="#000000" font-family="sans-serif" font-size="14" lengthAdjust="spacingAndGlyphs" textLength="71" x="542" y="825.0889">Server_OS</text><rect fill="#FEFECE" filter="url(#firv5rijk0pey)" height="30.2969" style="stroke: #A80036; stroke-width: 1.5;" width="102" x="636.5" y="3"/><text fill="#000000" font-family="sans-serif" font-size="14" lengthAdjust="spacingAndGlyphs" textLength="88" x="643.5" y="22.9951">HTTP_Server</text><rect fill="#FEFECE" filter="url(#firv5rijk0pey)" height="30.2969" style="stroke: #A80036; stroke-width: 1.5;" width="102" x="636.5" y="805.0938"/><text fill="#000000" font-family="sans-serif" font-size="14" lengthAdjust="spacingAndGlyphs" textLength="88" x="643.5" y="825.0889">HTTP_Server</text><rect fill="#FFFFFF" filter="url(#firv5rijk0pey)" height="147.6641" style="stroke: #A80036; stroke-width: 1.0;" width="10" x="154" y="640.4297"/><rect fill="#FFFFFF" filter="url(#firv5rijk0pey)" height="29.1328" style="stroke: #A80036; stroke-width: 1.0;" width="10" x="684.5" y="553.0313"/><polygon fill="#A80036" points="147,65.4297,157,69.4297,147,73.4297,151,69.4297" style="stroke: #A80036; stroke-width: 1.0;"/><line style="stroke: #A80036; stroke-width: 1.0;" x1="33" x2="153" y1="69.4297" y2="69.4297"/><text fill="#000000" font-family="sans-serif" font-size="13" lengthAdjust="spacingAndGlyphs" textLength="21" x="40" y="64.3638">URI</text><path d="M111.5,84.4297 L175.5,84.4297 L175.5,91.4297 L165.5,101.4297 L111.5,101.4297 L111.5,84.4297 " fill="#EEEEEE" style="stroke: #000000; stroke-width: 1.0;"/><rect fill="none" height="236.5391" style="stroke: #000000; stroke-width: 2.0;" width="593.5" x="111.5" y="84.4297"/><text fill="#000000" font-family="sans-serif" font-size="13" font-weight="bold" lengthAdjust="spacingAndGlyphs" textLength="19" x="126.5" y="97.4966">alt</text><text fill="#000000" font-family="sans-serif" font-size="11" font-weight="bold" lengthAdjust="spacingAndGlyphs" textLength="188" x="190.5" y="96.6401">[If there is no match in HSTS]</text><polygon fill="#A80036" points="354,118.6953,364,122.6953,354,126.6953,358,122.6953" style="stroke: #A80036; stroke-width: 1.0;"/><line style="stroke: #A80036; stroke-width: 1.0;" x1="159" x2="360" y1="122.6953" y2="122.6953"/><text fill="#000000" font-family="sans-serif" font-size="13" lengthAdjust="spacingAndGlyphs" textLength="183" x="166" y="117.6294">Call function gethostbyname</text><path d="M337,137.6953 L401,137.6953 L401,144.6953 L391,154.6953 L337,154.6953 L337,137.6953 " fill="#EEEEEE" style="stroke: #000000; stroke-width: 1.0;"/><rect fill="none" height="132.3359" style="stroke: #000000; stroke-width: 2.0;" width="358" x="337" y="137.6953"/><text fill="#000000" font-family="sans-serif" font-size="13" font-weight="bold" lengthAdjust="spacingAndGlyphs" textLength="19" x="352" y="150.7622">alt</text><text fill="#000000" font-family="sans-serif" font-size="11" font-weight="bold" lengthAdjust="spacingAndGlyphs" textLength="274" x="416" y="149.9058">[If there is no match in cache or hosts file]</text><polygon fill="#A80036" points="464,171.9609,474,175.9609,464,179.9609,468,175.9609" style="stroke: #A80036; stroke-width: 1.0;"/><line style="stroke: #A80036; stroke-width: 1.0;" x1="366" x2="470" y1="175.9609" y2="175.9609"/><text fill="#000000" font-family="sans-serif" font-size="13" lengthAdjust="spacingAndGlyphs" textLength="78" x="373" y="170.895">ARP request</text><polygon fill="#A80036" points="377,201.0938,367,205.0938,377,209.0938,373,205.0938" style="stroke: #A80036; stroke-width: 1.0;"/><line style="stroke: #A80036; stroke-width: 1.0; stroke-dasharray: 2.0,2.0;" x1="371" x2="475" y1="205.0938" y2="205.0938"/><text fill="#000000" font-family="sans-serif" font-size="13" lengthAdjust="spacingAndGlyphs" textLength="86" x="383" y="200.0278">ARP reply с IP</text><line style="stroke: #000000; stroke-width: 1.0; stroke-dasharray: 2.0,2.0;" x1="337" x2="695" y1="214.0938" y2="214.0938"/><text fill="#000000" font-family="sans-serif" font-size="11" font-weight="bold" lengthAdjust="spacingAndGlyphs" textLength="241" x="342" y="224.3042">[If there is a match in cache or hosts]</text><line style="stroke: #A80036; stroke-width: 1.0;" x1="366" x2="408" y1="249.0313" y2="249.0313"/><line style="stroke: #A80036; stroke-width: 1.0;" x1="408" x2="408" y1="249.0313" y2="262.0313"/><line style="stroke: #A80036; stroke-width: 1.0;" x1="367" x2="408" y1="262.0313" y2="262.0313"/><polygon fill="#A80036" points="377,258.0313,367,262.0313,377,266.0313,373,262.0313" style="stroke: #A80036; stroke-width: 1.0;"/><text fill="#000000" font-family="sans-serif" font-size="13" lengthAdjust="spacingAndGlyphs" textLength="11" x="373" y="243.9653">IP</text><line style="stroke: #000000; stroke-width: 1.0; stroke-dasharray: 2.0,2.0;" x1="111.5" x2="705" y1="278.0313" y2="278.0313"/><text fill="#000000" font-family="sans-serif" font-size="11" font-weight="bold" lengthAdjust="spacingAndGlyphs" textLength="180" x="116.5" y="288.2417">[If there is a match in HSTS]</text><polygon fill="#A80036" points="354,308.9688,364,312.9688,354,316.9688,358,312.9688" style="stroke: #A80036; stroke-width: 1.0;"/><line style="stroke: #A80036; stroke-width: 1.0;" x1="159" x2="360" y1="312.9688" y2="312.9688"/><text fill="#000000" font-family="sans-serif" font-size="13" lengthAdjust="spacingAndGlyphs" textLength="11" x="166" y="307.9028">IP</text><polygon fill="#A80036" points="567.5,345.1016,577.5,349.1016,567.5,353.1016,571.5,349.1016" style="stroke: #A80036; stroke-width: 1.0;"/><line style="stroke: #A80036; stroke-width: 1.0;" x1="366" x2="573.5" y1="349.1016" y2="349.1016"/><text fill="#000000" font-family="sans-serif" font-size="13" lengthAdjust="spacingAndGlyphs" textLength="100" x="373" y="344.0356">TSP Handshake</text><polygon fill="#A80036" points="567.5,374.2344,577.5,378.2344,567.5,382.2344,571.5,378.2344" style="stroke: #A80036; stroke-width: 1.0;"/><line style="stroke: #A80036; stroke-width: 1.0;" x1="366" x2="573.5" y1="378.2344" y2="378.2344"/><text fill="#000000" font-family="sans-serif" font-size="13" lengthAdjust="spacingAndGlyphs" textLength="26" x="373" y="373.1685">SYN</text><polygon fill="#A80036" points="377,403.3672,367,407.3672,377,411.3672,373,407.3672" style="stroke: #A80036; stroke-width: 1.0;"/><line style="stroke: #A80036; stroke-width: 1.0;" x1="371" x2="578.5" y1="407.3672" y2="407.3672"/><text fill="#000000" font-family="sans-serif" font-size="13" lengthAdjust="spacingAndGlyphs" textLength="60" x="383" y="402.3013">SYN, ACK</text><polygon fill="#A80036" points="567.5,432.5,577.5,436.5,567.5,440.5,571.5,436.5" style="stroke: #A80036; stroke-width: 1.0;"/><line style="stroke: #A80036; stroke-width: 1.0;" x1="366" x2="573.5" y1="436.5" y2="436.5"/><text fill="#000000" font-family="sans-serif" font-size="13" lengthAdjust="spacingAndGlyphs" textLength="25" x="373" y="431.4341">ACL</text><polygon fill="#A80036" points="170,461.6328,160,465.6328,170,469.6328,166,465.6328" style="stroke: #A80036; stroke-width: 1.0;"/><line style="stroke: #A80036; stroke-width: 1.0;" x1="164" x2="365" y1="465.6328" y2="465.6328"/><text fill="#000000" font-family="sans-serif" font-size="13" lengthAdjust="spacingAndGlyphs" textLength="149" x="176" y="460.5669">Connection established</text><polygon fill="#A80036" points="354,490.7656,364,494.7656,354,498.7656,358,494.7656" style="stroke: #A80036; stroke-width: 1.0;"/><line style="stroke: #A80036; stroke-width: 1.0;" x1="159" x2="360" y1="494.7656" y2="494.7656"/><text fill="#000000" font-family="sans-serif" font-size="13" lengthAdjust="spacingAndGlyphs" textLength="85" x="166" y="489.6997">HTTP request</text><polygon fill="#A80036" points="567.5,519.8984,577.5,523.8984,567.5,527.8984,571.5,523.8984" style="stroke: #A80036; stroke-width: 1.0;"/><line style="stroke: #A80036; stroke-width: 1.0;" x1="366" x2="573.5" y1="523.8984" y2="523.8984"/><text fill="#000000" font-family="sans-serif" font-size="13" lengthAdjust="spacingAndGlyphs" textLength="71" x="373" y="518.8325">TCP packet</text><polygon fill="#A80036" points="672.5,549.0313,682.5,553.0313,672.5,557.0313,676.5,553.0313" style="stroke: #A80036; stroke-width: 1.0;"/><line style="stroke: #A80036; stroke-width: 1.0;" x1="579.5" x2="678.5" y1="553.0313" y2="553.0313"/><text fill="#000000" font-family="sans-serif" font-size="13" lengthAdjust="spacingAndGlyphs" textLength="85" x="586.5" y="547.9653">HTTP request</text><polygon fill="#A80036" points="590.5,578.1641,580.5,582.1641,590.5,586.1641,586.5,582.1641" style="stroke: #A80036; stroke-width: 1.0;"/><line style="stroke: #A80036; stroke-width: 1.0;" x1="584.5" x2="688.5" y1="582.1641" y2="582.1641"/><text fill="#000000" font-family="sans-serif" font-size="13" lengthAdjust="spacingAndGlyphs" textLength="81" x="596.5" y="577.0981">HTTP answer</text><polygon fill="#A80036" points="377,607.2969,367,611.2969,377,615.2969,373,611.2969" style="stroke: #A80036; stroke-width: 1.0;"/><line style="stroke: #A80036; stroke-width: 1.0;" x1="371" x2="578.5" y1="611.2969" y2="611.2969"/><text fill="#000000" font-family="sans-serif" font-size="13" lengthAdjust="spacingAndGlyphs" textLength="82" x="383" y="606.231">TCP package</text><polygon fill="#A80036" points="175,636.4297,165,640.4297,175,644.4297,171,640.4297" style="stroke: #A80036; stroke-width: 1.0;"/><line style="stroke: #A80036; stroke-width: 1.0;" x1="169" x2="365" y1="640.4297" y2="640.4297"/><text fill="#000000" font-family="sans-serif" font-size="13" lengthAdjust="spacingAndGlyphs" textLength="90" x="181" y="635.3638">HTTP package</text><path d="M337,655.4297 L401,655.4297 L401,662.4297 L391,672.4297 L337,672.4297 L337,655.4297 " fill="#EEEEEE" style="stroke: #000000; stroke-width: 1.0;"/><rect fill="none" height="104.5313" style="stroke: #000000; stroke-width: 2.0;" width="297" x="337" y="655.4297"/><text fill="#000000" font-family="sans-serif" font-size="13" font-weight="bold" lengthAdjust="spacingAndGlyphs" textLength="19" x="352" y="668.4966">alt</text><text fill="#000000" font-family="sans-serif" font-size="11" font-weight="bold" lengthAdjust="spacingAndGlyphs" textLength="129" x="416" y="667.6401">[Disable keep-alive]</text><polygon fill="#A80036" points="567.5,689.6953,577.5,693.6953,567.5,697.6953,571.5,693.6953" style="stroke: #A80036; stroke-width: 1.0;"/><line style="stroke: #A80036; stroke-width: 1.0;" x1="366" x2="573.5" y1="693.6953" y2="693.6953"/><text fill="#000000" font-family="sans-serif" font-size="13" lengthAdjust="spacingAndGlyphs" textLength="20" x="373" y="688.6294">FIN</text><polygon fill="#A80036" points="377,718.8281,367,722.8281,377,726.8281,373,722.8281" style="stroke: #A80036; stroke-width: 1.0;"/><line style="stroke: #A80036; stroke-width: 1.0;" x1="371" x2="578.5" y1="722.8281" y2="722.8281"/><text fill="#000000" font-family="sans-serif" font-size="13" lengthAdjust="spacingAndGlyphs" textLength="54" x="383" y="717.7622">ACK, FIN</text><polygon fill="#A80036" points="567.5,747.9609,577.5,751.9609,567.5,755.9609,571.5,751.9609" style="stroke: #A80036; stroke-width: 1.0;"/><line style="stroke: #A80036; stroke-width: 1.0;" x1="366" x2="573.5" y1="751.9609" y2="751.9609"/><text fill="#000000" font-family="sans-serif" font-size="13" lengthAdjust="spacingAndGlyphs" textLength="26" x="373" y="746.895">ACK</text><polygon fill="#A80036" points="44,784.0938,34,788.0938,44,792.0938,40,788.0938" style="stroke: #A80036; stroke-width: 1.0;"/><line style="stroke: #A80036; stroke-width: 1.0;" x1="38" x2="158" y1="788.0938" y2="788.0938"/><text fill="#000000" font-family="sans-serif" font-size="13" lengthAdjust="spacingAndGlyphs" textLength="97" x="50" y="783.0278">Rendered page</text><!--MD5=[251b879903dc4f7c04453cad7f26b5fe]
@startuml
User -> Browser: URI 
alt If there is no match in HSTS
Browser -> OS: Call function gethostbyname
alt If there is no match in cache or hosts file
OS -> DNS_server: ARP request
DNS_server - -> OS: ARP reply с IP 
else If there is a match in cache or hosts
OS -> OS: IP
end
else If there is a match in HSTS
Browser -> OS: IP 
end
OS -> Server_OS: TSP Handshake
OS -> Server_OS: SYN
Server_OS -> OS: SYN, ACK
OS -> Server_OS: ACL
OS -> Browser: Connection established
Browser -> OS: HTTP request
OS-> Server_OS: TCP packet
Server_OS -> HTTP_Server: HTTP request
activate HTTP_Server
HTTP_Server -> Server_OS: HTTP answer
deactivate HTTP_Server
Server_OS -> OS: TCP package
OS -> Browser: HTTP package
activate Browser
alt Disable keep-alive
OS -> Server_OS: FIN
Server_OS -> OS: ACK, FIN
OS -> Server_OS: ACK
end
Browser -> User: Rendered page
deactivate Browser
@enduml

PlantUML version 1.2019.11(Sun Sep 22 10:02:15 UTC 2019)
(GPL source distribution)
Java Runtime: OpenJDK Runtime Environment
JVM: OpenJDK 64-Bit Server VM
Java Version: 1.8.0_222-heroku-b10
Operating System: Linux
Default Encoding: UTF-8
Language: en
Country: US
--></g></svg>